<?xml version="1.0" encoding="utf-8"?>
<!-- Generator: Adobe Illustrator 16.0.0, SVG Export Plug-In . SVG Version: 6.00 Build 0)  -->
<!DOCTYPE svg PUBLIC "-//W3C//DTD SVG 1.1//EN" "http://www.w3.org/Graphics/SVG/1.1/DTD/svg11.dtd">
<svg version="1.1" id="Layer_1" xmlns="http://www.w3.org/2000/svg" xmlns:xlink="http://www.w3.org/1999/xlink" x="0px" y="0px"
	 width="246px" height="100px" viewBox="0 0 246 100" style="enable-background:new 0 0 246 100;" xml:space="preserve">
<style type="text/css">
<![CDATA[
	.st0{fill:#FFFFFF;}
	.st1{fill:#63A830;}
	.st2{fill:none;stroke:#FFFFFF;stroke-width:0.7548;stroke-miterlimit:10;}
]]>
</style>
<g>
	<circle class="st1" cx="42.049" cy="49.999" r="41.333"/>
	<g>
		<path d="M93.327,74.568V55.99h6.473c1.571,0,2.866,0.248,3.886,0.744s1.828,1.164,2.424,2.004c0.596,0.84,1.011,1.818,1.246,2.938
			c0.234,1.121,0.352,2.303,0.352,3.549c0,1.264-0.131,2.461-0.393,3.588c-0.262,1.129-0.708,2.123-1.34,2.979
			c-0.632,0.859-1.467,1.535-2.505,2.031c-1.038,0.498-2.333,0.746-3.886,0.746H93.327z M96.441,58.211v14.082h2.844
			c0.451,0,0.979-0.062,1.584-0.189c0.604-0.127,1.178-0.424,1.72-0.895c0.542-0.469,1.002-1.16,1.381-2.07
			c0.379-0.912,0.568-2.162,0.568-3.752c0-1.607-0.176-2.885-0.528-3.832s-0.79-1.67-1.313-2.166
			c-0.524-0.496-1.083-0.816-1.679-0.963c-0.596-0.143-1.147-0.215-1.652-0.215H96.441z"/>
		<path d="M127.207,65.305c0,1.355-0.172,2.609-0.515,3.766s-0.853,2.162-1.53,3.02c-0.677,0.857-1.521,1.525-2.532,2.004
			c-1.012,0.479-2.185,0.719-3.521,0.719c-1.48,0-2.745-0.227-3.792-0.678c-1.047-0.451-1.905-1.088-2.573-1.91
			c-0.668-0.82-1.16-1.809-1.476-2.965s-0.474-2.447-0.474-3.873c0-1.299,0.149-2.537,0.447-3.711
			c0.298-1.172,0.781-2.201,1.449-3.086s1.53-1.59,2.586-2.113s2.333-0.785,3.832-0.785c1.517,0,2.79,0.262,3.819,0.785
			c1.029,0.523,1.864,1.223,2.505,2.1c0.641,0.875,1.097,1.895,1.368,3.061C127.071,62.801,127.207,64.023,127.207,65.305z
			 M123.984,65.387c0-0.885-0.063-1.773-0.189-2.668c-0.126-0.893-0.366-1.697-0.718-2.41s-0.844-1.291-1.476-1.732
			c-0.632-0.443-1.462-0.664-2.492-0.664c-1.029,0-1.878,0.213-2.545,0.637c-0.668,0.424-1.192,0.984-1.571,1.68
			c-0.379,0.695-0.641,1.494-0.786,2.396s-0.217,1.832-0.217,2.789c0,2.311,0.393,4.076,1.178,5.295
			c0.786,1.219,2.099,1.828,3.94,1.828c0.849,0,1.58-0.186,2.194-0.555c0.614-0.371,1.119-0.877,1.517-1.518
			c0.397-0.641,0.69-1.395,0.88-2.262C123.889,67.336,123.984,66.398,123.984,65.387z"/>
		<path d="M134.031,63.844l1.191-1.328l6.148-6.525h3.521l-7.15,7.338l7.475,11.24h-3.548l-5.958-9.182l-1.869,1.896v7.285h-3.033
			V55.99h3.033v7.854H134.031z"/>
		<path d="M151.878,74.568V58.291h-5.931V55.99h14.896v2.301h-5.904l-0.027,16.277H151.878z"/>
		<path d="M179.016,65.305c0,1.355-0.172,2.609-0.515,3.766c-0.344,1.156-0.854,2.162-1.53,3.02s-1.521,1.525-2.532,2.004
			c-1.012,0.479-2.185,0.719-3.521,0.719c-1.481,0-2.745-0.227-3.792-0.678s-1.905-1.088-2.573-1.91
			c-0.668-0.82-1.16-1.809-1.476-2.965c-0.316-1.156-0.474-2.447-0.474-3.873c0-1.299,0.148-2.537,0.446-3.711
			c0.298-1.172,0.781-2.201,1.449-3.086s1.53-1.59,2.586-2.113c1.057-0.523,2.334-0.785,3.833-0.785
			c1.517,0,2.789,0.262,3.818,0.785s1.864,1.223,2.505,2.1c0.641,0.875,1.097,1.895,1.368,3.061
			C178.88,62.801,179.016,64.023,179.016,65.305z M175.792,65.387c0-0.885-0.063-1.773-0.189-2.668
			c-0.126-0.893-0.365-1.697-0.718-2.41c-0.352-0.713-0.844-1.291-1.476-1.732c-0.632-0.443-1.463-0.664-2.491-0.664
			c-1.029,0-1.878,0.213-2.546,0.637s-1.191,0.984-1.571,1.68c-0.379,0.695-0.641,1.494-0.785,2.396s-0.217,1.832-0.217,2.789
			c0,2.311,0.393,4.076,1.179,5.295c0.785,1.219,2.099,1.828,3.94,1.828c0.848,0,1.579-0.186,2.193-0.555
			c0.613-0.371,1.119-0.877,1.517-1.518c0.396-0.641,0.69-1.395,0.88-2.262S175.792,66.398,175.792,65.387z"/>
		<path d="M195.318,61.217c0,1.064-0.271,2.045-0.812,2.938c-0.541,0.895-1.354,1.514-2.438,1.855
			c0.38,0.107,0.695,0.271,0.948,0.488s0.474,0.469,0.663,0.758c0.19,0.289,0.348,0.605,0.475,0.947
			c0.126,0.344,0.243,0.705,0.352,1.084l1.517,5.281h-3.061c-0.253-0.83-0.496-1.656-0.73-2.479
			c-0.235-0.822-0.47-1.656-0.704-2.506c-0.308-1.119-0.736-1.867-1.287-2.248c-0.551-0.379-1.241-0.568-2.071-0.568h-2.519v7.801
			h-3.033V55.99h6.905c0.976,0,1.828,0.131,2.56,0.393s1.336,0.627,1.814,1.096c0.479,0.471,0.835,1.021,1.07,1.652
			C195.201,59.764,195.318,60.457,195.318,61.217z M188.981,64.547c0.343,0,0.704-0.045,1.083-0.135
			c0.379-0.092,0.722-0.254,1.029-0.49c0.307-0.236,0.564-0.562,0.771-0.979c0.208-0.418,0.312-0.943,0.312-1.578
			c0-1.123-0.307-1.932-0.921-2.42c-0.613-0.49-1.381-0.734-2.302-0.734h-3.304v6.336H188.981z"/>
		<path d="M210.43,74.568c-0.253-0.76-0.492-1.518-0.718-2.275s-0.465-1.525-0.718-2.303h-7.068l-1.436,4.578h-3.087
			c1.101-3.322,2.175-6.527,3.223-9.615c1.047-3.088,2.049-6.074,3.006-8.963h3.873l6.094,18.578H210.43z M200.978,52.279h9.182
			v2.059h-9.182V52.279z M207.044,63.383c-0.253-0.867-0.501-1.721-0.744-2.559c-0.244-0.84-0.492-1.676-0.745-2.506h-0.108
			l-1.436,4.957c-0.018,0.053-0.063,0.193-0.135,0.418c-0.072,0.227-0.154,0.498-0.244,0.812c-0.091,0.316-0.189,0.65-0.298,1.002
			c-0.108,0.354-0.213,0.688-0.312,1.004c-0.1,0.314-0.186,0.59-0.257,0.824c-0.072,0.236-0.118,0.381-0.136,0.434h5.715
			L207.044,63.383z"/>
		<path d="M219.746,74.568V58.291h-5.932V55.99h14.896v2.301h-5.903l-0.027,16.277H219.746z"/>
		<path d="M237.377,55.664c0.849,0,1.761,0.086,2.735,0.258s1.887,0.492,2.735,0.961l-0.867,2.113
			c-0.902-0.379-1.756-0.627-2.559-0.746c-0.804-0.117-1.521-0.176-2.153-0.176c-0.975,0-1.761,0.244-2.356,0.732
			c-0.596,0.486-0.894,1.219-0.894,2.193c0,0.434,0.112,0.799,0.339,1.096c0.226,0.299,0.523,0.551,0.894,0.76
			c0.37,0.207,0.79,0.379,1.26,0.514c0.469,0.135,0.956,0.268,1.462,0.393c0.65,0.162,1.331,0.352,2.045,0.568
			c0.713,0.217,1.367,0.525,1.963,0.922c0.597,0.396,1.088,0.926,1.477,1.584c0.388,0.658,0.582,1.512,0.582,2.559
			c0,1.807-0.641,3.16-1.923,4.062c-1.282,0.904-3.069,1.355-5.362,1.355c-0.957,0-2.004-0.109-3.142-0.326
			s-2.203-0.596-3.195-1.137l0.894-2.193c1.191,0.523,2.257,0.861,3.195,1.016c0.938,0.152,1.742,0.229,2.41,0.229
			c1.264,0,2.239-0.221,2.926-0.662c0.686-0.443,1.028-1.223,1.028-2.344c0-0.486-0.09-0.889-0.271-1.205
			c-0.181-0.314-0.429-0.586-0.745-0.812c-0.315-0.225-0.69-0.41-1.123-0.555c-0.434-0.145-0.912-0.289-1.436-0.434
			c-0.849-0.217-1.666-0.447-2.451-0.689c-0.785-0.244-1.476-0.557-2.072-0.936c-0.596-0.379-1.069-0.861-1.422-1.449
			c-0.352-0.586-0.527-1.33-0.527-2.234c0-1.678,0.582-3,1.746-3.967C233.734,56.148,235.336,55.664,237.377,55.664z"/>
	</g>
	<g>
		<g>
			<g>
				<path class="st0" d="M52.29,79.26c10.057-3.752,13.567-18.238,8.195-26.958c-1.724-2.799-5.682-5.871-9.141-5.794
					c-3.099,0.068-7.776,0.858-8.19,4.577c0.805,0.128,1.609,0.256,2.414,0.384c-2.027-1.89-4.412-4.299-4.563-7.196
					c-0.046-0.873-2.686-1.741-2.636-0.786c0.167,3.174,2.792,5.935,5.007,8c0.367,0.343,2.294,1.46,2.414,0.384
					c0.214-1.928,1.78-2.574,3.312-3.157c3.058-1.165,5.484-0.437,8.161,2.285c2.766,2.812,3.179,7.566,3.078,11.302
					c-0.161,5.952-4.24,13.233-10.034,15.395C49.18,78.114,51.528,79.544,52.29,79.26L52.29,79.26z"/>
			</g>
		</g>
		<g>
			<path class="st0" d="M18.108,38.549c1.666,0.447,3.208,1.521,4.362,1.479c1.697-0.043,4.046-1.852,6.413-2.225
				c3.163-0.539,6.436,1.244,8.722,3.277c-2.239,0.631-4.574,0.951-6.709,1.926c-2.228,0.896-3.949,3.203-6.465,3.436
				c-2.624,0.098-4.761-1.246-5.481-2.572C18.31,42.68,18.022,38.512,18.108,38.549z"/>
		</g>
		<g>
			<g>
				<path class="st0" d="M66.041,24.32c1.254,4.555-11.568,3.201-14.711,4.718c-4.517,2.18-6.808,7.995-10.365,11.325
					c-0.288,0.27,1.007,0.626,1.338,0.317c2.36-2.21,4.137-4.879,6.118-7.416c3.139-4.021,6.63-4.544,11.489-4.694
					c2.518-0.078,8.557-0.453,7.507-4.265C67.304,23.9,65.91,23.843,66.041,24.32L66.041,24.32z"/>
			</g>
		</g>
		<path class="st2" d="M42.558,37.422c-3.549-2.961-1.582-9.447,1.608-11.479"/>
		<g>
			<path class="st0" d="M46.812,19.928c-2.012,1.227-1.643,2.922-1.565,3.324c1.044,5.225,1.931,3.951-3.326,10.391l-1.106,1.145
				c0,0-0.672-0.947-0.878-1.293c-1.525-2.533-3.354-5.936,0.655-8.293c4.112-2.396,2.299-3.562,6.239-5.303"/>
		</g>
		<g>
			<path class="st0" d="M50.681,35.791c3.908,8.908,9.696-0.57,10.988,1.516c-1.587-3.148-6.141-5.139-8.358-2.445
				C52.21,36.189,50.681,35.791,50.681,35.791z"/>
		</g>
		<g>
			<g>
				<path class="st0" d="M42.567,52.133c-4.593-3.689-10.595-4.041-15.169-0.165c-5.477,4.641-3.815,14.431-1.001,19.948
					c2.524,4.95,8.187,9.567,13.996,9.222c4.548-0.271,9.551-1.964,10.522-6.938c0.143-0.732-2.41-0.78-2.591,0.148
					c-0.927,4.747-6.659,6.422-10.842,5.104c-3.73-1.176-6.664-4.818-8.606-8.008c-1.939-3.185-2.372-7.026-2.371-10.671
					c0.003-6.719,6.055-14.157,13.861-7.887C40.981,53.38,43.453,52.845,42.567,52.133L42.567,52.133z"/>
			</g>
		</g>
		<g>
			<g>
				<path class="st0" d="M13.33,71.063c-4.731-5.3-1.458-11.796,2.835-16.048c4.218-4.179,9.973-4.517,15.071-6.967
					c3.599-1.73,6.321-4.504,9.73-6.455c1.758-1.006,3.9-1.238,5.427-2.684c1.122-1.062,3.375-5.222,5.441-3.917
					c0.702,0.443,0.99,0.006,0.285-0.439c-3.849-2.431-5.904,3.22-8.986,4.85c-2.439,1.29-4.5,2.078-6.663,3.845
					c-2.128,1.739-4.628,3.134-7.102,4.324c-3.22,1.548-6.815,2.018-10.037,3.576c-2.764,1.337-5.049,3.574-6.899,5.973
					c-3.357,4.354-3.618,9.823,0.051,13.933C12.758,71.36,13.939,71.745,13.33,71.063L13.33,71.063z"/>
			</g>
		</g>
	</g>
	<g>
		<path d="M102.387,22.048c1.081,0,2.244,0.109,3.486,0.328c1.243,0.219,2.404,0.627,3.486,1.226l-1.105,2.692
			c-1.151-0.483-2.238-0.799-3.262-0.949c-1.024-0.149-1.939-0.225-2.744-0.225c-1.243,0-2.244,0.311-3.003,0.932
			c-0.759,0.622-1.139,1.553-1.139,2.796c0,0.552,0.144,1.019,0.432,1.398c0.287,0.38,0.667,0.702,1.139,0.967
			s1.007,0.483,1.605,0.656c0.598,0.172,1.219,0.34,1.864,0.5c0.829,0.207,1.697,0.449,2.606,0.725
			c0.909,0.276,1.743,0.668,2.502,1.174c0.76,0.506,1.386,1.18,1.881,2.019c0.495,0.84,0.742,1.928,0.742,3.262
			c0,2.301-0.817,4.027-2.451,5.178c-1.634,1.151-3.913,1.726-6.834,1.726c-1.22,0-2.554-0.138-4.004-0.414
			c-1.45-0.276-2.808-0.759-4.073-1.45l1.139-2.796c1.519,0.667,2.876,1.099,4.073,1.294c1.196,0.196,2.221,0.293,3.072,0.293
			c1.61,0,2.853-0.282,3.728-0.846c0.874-0.564,1.312-1.559,1.312-2.986c0-0.622-0.115-1.133-0.345-1.536
			c-0.23-0.402-0.547-0.748-0.949-1.036c-0.403-0.288-0.88-0.523-1.433-0.708c-0.552-0.184-1.162-0.368-1.829-0.552
			c-1.082-0.276-2.123-0.57-3.124-0.88s-1.881-0.708-2.641-1.191c-0.759-0.483-1.363-1.099-1.812-1.847
			c-0.449-0.748-0.673-1.697-0.673-2.848c0-2.14,0.742-3.825,2.227-5.057C97.744,22.664,99.786,22.048,102.387,22.048z"/>
		<path d="M127.256,39.721l3.998-9.32c0.598-1.312,1.172-2.628,1.723-3.952c0.551-1.323,1.126-2.641,1.724-3.952h4.481v23.645
			h-3.763v-17.5h-0.104l-1.829,4.315l-4.729,10.804h-3.383c-0.783-1.864-1.571-3.728-2.364-5.592
			c-0.794-1.864-1.617-3.728-2.468-5.592c-0.253-0.667-0.524-1.312-0.811-1.933c-0.288-0.621-0.558-1.254-0.812-1.898h-0.069
			c0,2.923-0.006,5.828-0.017,8.716c-0.012,2.888-0.018,5.782-0.018,8.681h-3.728V22.497h4.653l3.309,7.87l3.964,9.354H127.256z"/>
		<path d="M160.514,29.503c0,0.783-0.127,1.6-0.38,2.451c-0.253,0.852-0.662,1.628-1.226,2.33c-0.563,0.702-1.317,1.283-2.261,1.743
			c-0.943,0.46-2.105,0.69-3.486,0.69h-4.729l0.034,9.423h-3.969V22.462h8.319c2.416,0,4.303,0.61,5.661,1.83
			C159.835,25.511,160.514,27.249,160.514,29.503z M148.433,25.292v8.595h4.073c0.506,0,1.001-0.068,1.484-0.206
			c0.482-0.137,0.914-0.373,1.294-0.705c0.38-0.333,0.685-0.773,0.915-1.324c0.229-0.55,0.345-1.238,0.345-2.063
			c0-1.49-0.402-2.578-1.208-3.266s-1.795-1.032-2.969-1.032H148.433z"/>
	</g>
</g>
<g>
</g>
<g>
</g>
<g>
</g>
<g>
</g>
<g>
</g>
<g>
</g>
</svg>
